<svg width="189" height="149" viewBox="0 0 189 149" fill="none" xmlns="http://www.w3.org/2000/svg">
<path d="M19.7501 66.0001L123.137 66.0017C125.346 66.0017 127.137 67.7926 127.137 70.0017V73.7508V87.909C127.137 88.7606 126.776 89.5742 126.135 90.135C125.294 90.8714 124.75 91.3227 124.75 91.3227C126.25 94.2286 132.139 93.7557 137.25 94.5C125.25 94.9151 118.25 95.0589 112.75 91.7378H19.75C17.5409 91.7378 15.75 89.947 15.75 87.7378V70.0001C15.75 67.7909 17.5409 66 19.7501 66.0001Z" fill="#FF8549"/>
<path d="M173.194 13.0001L68.8505 13.0017C66.8869 13.0018 65.295 14.5936 65.295 16.5573V20.993V35.9008C65.295 36.5892 65.5601 37.2521 66.0421 37.7435C66.8711 38.5886 67.4167 39.114 67.4167 39.114C66.0833 42.1107 59.7934 41.7325 55.25 42.5C65.9167 42.9281 73.1944 42.9669 78.0833 39.5421H173.194C175.158 39.5421 176.75 37.9503 176.75 35.9866V16.5556C176.75 14.5919 175.158 13 173.194 13.0001Z" fill="#FF8549"/>
<circle cx="26.25" cy="25.5" r="24.75" fill="#FFFBF2" stroke="#41413E" stroke-width="1.5"/>
<path d="M29.6881 36.125C30.0962 35.6688 30.3644 35.1047 30.4605 34.5002C30.5566 33.8957 30.4766 33.2763 30.2301 32.716C29.9836 32.1558 29.5809 31.6783 29.0703 31.3408C28.5597 31.0032 27.9627 30.8198 27.3506 30.8125M30.5 34C30.5 33.1546 30.8358 32.3439 31.4336 31.7461C32.0314 31.1483 32.8421 30.8125 33.6875 30.8125H34.75C35.3136 30.8125 35.8541 30.5886 36.2526 30.1901C36.6511 29.7916 36.875 29.2511 36.875 28.6875V26.5625C36.875 25.4353 36.4272 24.3543 35.6302 23.5573C34.8332 22.7603 33.7522 22.3125 32.625 22.3125V17M32.625 26.5625H32.6356M32.625 19.125C31.4978 19.125 30.4168 19.5728 29.6198 20.3698C28.8228 21.1668 28.375 22.2478 28.375 23.375C26.4025 23.375 24.5107 24.1586 23.1159 25.5534C21.7211 26.9482 20.9375 28.84 20.9375 30.8125C20.9375 25.5 25.1875 25.5 25.1875 19.6563C25.1875 19.0284 25.0638 18.4066 24.8236 17.8265C24.5833 17.2465 24.2311 16.7194 23.7871 16.2754C23.3431 15.8314 22.816 15.4792 22.236 15.239C21.6559 14.9987 21.0341 14.875 20.4063 14.875C19.7784 14.875 19.1566 14.9987 18.5765 15.239C17.9965 15.4792 17.4694 15.8314 17.0254 16.2754C16.5814 16.7194 16.2292 17.2465 15.989 17.8265C15.7487 18.4066 15.625 19.0284 15.625 19.6563C15.625 20.3607 15.9049 21.0364 16.403 21.5345C16.9011 22.0326 17.5768 22.3125 18.2813 22.3125C18.9857 22.3125 19.6614 22.0326 20.1595 21.5345C20.6576 21.0364 20.9375 20.3607 20.9375 19.6563C20.9375 23.375 16.6875 24.4375 16.6875 30.8125C16.6875 33.7875 19.025 36.125 22 36.125H32.625" stroke="#41413E" stroke-width="1.8" stroke-linecap="round" stroke-linejoin="round"/>
<circle cx="165.25" cy="77" r="22.25" fill="#FFFBF2" stroke="#41413E" stroke-width="1.5"/>
<path d="M164.969 81.0586C164.413 81.0579 163.87 81.218 163.404 81.5196C162.937 81.8212 162.568 82.2514 162.341 82.7582C162.114 83.2649 162.039 83.8266 162.124 84.3754C162.209 84.9241 162.452 85.4364 162.822 85.8503" stroke="#41413E" stroke-width="1.5" stroke-linecap="round" stroke-linejoin="round"/>
<path d="M160.178 77.2256H160.168" stroke="#41413E" stroke-width="2" stroke-linecap="round" stroke-linejoin="round"/>
<path d="M160.178 85.8518H167.844C168.861 85.8518 169.836 85.448 170.555 84.7291C171.274 84.0102 171.678 83.0352 171.678 82.0185C171.678 80.2393 170.971 78.533 169.713 77.275C168.455 76.0169 166.749 75.3102 164.969 75.3102H164.778L168.228 71.8602C168.404 71.684 168.544 71.4748 168.639 71.2446C168.734 71.0144 168.783 70.7677 168.783 70.5185C168.783 70.0153 168.584 69.5327 168.228 69.1768C167.872 68.821 167.389 68.6211 166.886 68.6211C166.637 68.6211 166.39 68.6702 166.16 68.7655C165.93 68.8609 165.721 69.0006 165.544 69.1768L162.286 72.4352H162.094C158.932 72.4352 156.344 75.0227 156.344 78.1852V79.1435C156.344 79.6518 156.546 80.1393 156.906 80.4988C157.265 80.8582 157.753 81.0602 158.261 81.0602H159.219C159.982 81.0602 160.713 81.3631 161.252 81.9022C161.792 82.4414 162.094 83.1727 162.094 83.9352" stroke="#41413E" stroke-width="1.5" stroke-linecap="round" stroke-linejoin="round"/>
<path d="M158.26 73.9101V69.5592C158.26 69.0509 158.462 68.5634 158.822 68.204C159.181 67.8445 159.669 67.6426 160.177 67.6426C160.685 67.6426 161.173 67.8445 161.532 68.204C161.892 68.5634 162.094 69.0509 162.094 69.5592V72.4342" stroke="#41413E" stroke-width="1.5" stroke-linecap="round" stroke-linejoin="round"/>
<path d="M170.133 77.7283C170.402 77.2513 170.802 76.8613 171.286 76.6041C171.77 76.347 172.317 76.2333 172.863 76.2766C173.409 76.3198 173.931 76.5182 174.368 76.8483C174.805 77.1784 175.139 77.6266 175.33 78.14C175.521 78.6534 175.562 79.2107 175.447 79.7462C175.332 80.2818 175.066 80.7734 174.681 81.1631C174.296 81.5528 173.808 81.8244 173.274 81.9459C172.739 82.0675 172.182 82.0339 171.666 81.8491" stroke="#41413E" stroke-width="1.5" stroke-linecap="round" stroke-linejoin="round"/>
<path d="M164.25 116.001L71.3632 116C69.154 116 67.3631 117.791 67.3631 120V122.78V134.882C67.3631 135.802 67.7843 136.674 68.5163 137.232C69.271 137.808 69.75 138.156 69.75 138.156C68.25 140.698 63.8613 140.849 58.75 141.5C70.75 141.863 76.25 141.425 81.75 138.519L164.25 138.522C166.459 138.522 168.25 136.731 168.25 134.522V120.001C168.25 117.792 166.459 116.002 164.25 116.001Z" fill="#FF8549"/>
<circle cx="28.75" cy="126.5" r="21.6768" fill="#FFFBF2" stroke="#41413E" stroke-width="1.64634"/>
<path d="M21.5273 126.721C21.5273 121.752 28.5586 120.627 31.8398 122.033C32.0273 121.471 33.2461 120.158 34.6523 120.158V122.971C35.1211 123.439 35.5898 123.908 35.5898 124.846H37.4648V128.596H35.5898C35.3086 129.533 34.6523 130.002 33.7148 130.471V134.221H29.9648V132.346H27.1523V134.221H23.4023V130.939C21.5273 129.533 21.5273 128.408 21.5273 126.721ZM21.5273 126.721H20.5898C19.5586 126.721 18.7148 125.877 18.7148 124.846V123.908M31.8398 125.783H31.8492" stroke="#41413E" stroke-width="1.8" stroke-linecap="round" stroke-linejoin="round"/>
<path d="M161.25 113.001L68.3632 113C66.154 113 64.3631 114.791 64.3631 117V119.78V131.882C64.3631 132.802 64.7843 133.674 65.5163 134.232C66.271 134.808 66.75 135.156 66.75 135.156C65.25 137.698 59.8613 140.316 54.75 140.968C66.75 141.331 73.25 138.425 78.75 135.519L161.25 135.522C163.459 135.522 165.25 133.731 165.25 131.522V117.001C165.25 114.792 163.459 113.002 161.25 113.001Z" fill="white" stroke="#41413E" stroke-width="1.5" stroke-linejoin="round"/>
<path d="M169.194 9.00006L64.8505 9.00175C62.8869 9.00178 61.295 10.5936 61.295 12.5573V16.993V31.9008C61.295 32.5892 61.5601 33.2521 62.0421 33.7435C62.8711 34.5886 63.4167 35.114 63.4167 35.114C62.0833 38.1107 57.2934 41.1961 52.75 41.9636C63.4167 42.3917 69.1944 38.9669 74.0833 35.5421H169.194C171.158 35.5421 172.75 33.9503 172.75 31.9866V12.5556C172.75 10.5919 171.158 9.00003 169.194 9.00006Z" fill="white" stroke="#41413E" stroke-width="1.5" stroke-linejoin="round"/>
<path d="M22.7501 62.0001L126.137 62.0017C128.346 62.0017 130.137 63.7926 130.137 66.0017V69.7508V83.909C130.137 84.7606 129.776 85.5742 129.135 86.135C128.294 86.8714 127.75 87.3227 127.75 87.3227C129.25 90.2286 134.639 93.2205 139.75 93.9647C127.75 94.3799 121.25 91.0589 115.75 87.7378H22.75C20.5409 87.7378 18.75 85.947 18.75 83.7378V66.0001C18.75 63.7909 20.5409 62 22.7501 62.0001Z" fill="white" stroke="#41413E" stroke-width="1.5" stroke-linejoin="round"/>
</svg>
