<svg width="48" height="48" viewBox="0 0 48 48" fill="none" xmlns="http://www.w3.org/2000/svg">
<circle cx="24" cy="24" r="24" fill="#179686"/>
<path d="M25.4523 27.5955C25.4171 27.5606 25.3695 27.541 25.3199 27.541C25.2703 27.541 25.2227 27.5606 25.1875 27.5955L22.4641 30.3189C21.2031 31.5799 19.075 31.7135 17.6828 30.3189C16.2883 28.9244 16.4219 26.7986 17.6828 25.5377L20.4063 22.8143C20.4789 22.7416 20.4789 22.6221 20.4063 22.5494L19.4734 21.6166C19.4382 21.5817 19.3906 21.5621 19.341 21.5621C19.2914 21.5621 19.2438 21.5817 19.2086 21.6166L16.4852 24.34C14.5023 26.3229 14.5023 29.5314 16.4852 31.5119C18.468 33.4924 21.6766 33.4947 23.657 31.5119L26.3805 28.7885C26.4531 28.7158 26.4531 28.5963 26.3805 28.5236L25.4523 27.5955ZM31.5133 16.4861C29.5305 14.5033 26.3219 14.5033 24.3414 16.4861L21.6156 19.2096C21.5807 19.2448 21.5612 19.2924 21.5612 19.342C21.5612 19.3916 21.5807 19.4392 21.6156 19.4744L22.5461 20.4049C22.6188 20.4775 22.7383 20.4775 22.8109 20.4049L25.5344 17.6814C26.7953 16.4205 28.9234 16.2869 30.3156 17.6814C31.7102 19.076 31.5766 21.2018 30.3156 22.4627L27.5922 25.1861C27.5573 25.2214 27.5377 25.269 27.5377 25.3186C27.5377 25.3681 27.5573 25.4157 27.5922 25.451L28.525 26.3838C28.5977 26.4564 28.7172 26.4564 28.7898 26.3838L31.5133 23.6604C33.4937 21.6775 33.4937 18.4689 31.5133 16.4861ZM26.2984 20.726C26.2632 20.6911 26.2156 20.6715 26.166 20.6715C26.1164 20.6715 26.0688 20.6911 26.0336 20.726L20.725 26.0322C20.6901 26.0675 20.6705 26.1151 20.6705 26.1646C20.6705 26.2142 20.6901 26.2618 20.725 26.2971L21.6531 27.2252C21.7258 27.2979 21.8453 27.2979 21.918 27.2252L27.2242 21.9189C27.2969 21.8463 27.2969 21.7268 27.2242 21.6541L26.2984 20.726Z" fill="white"/>
</svg>
