<svg width="48" height="48" viewBox="0 0 48 48" fill="none" xmlns="http://www.w3.org/2000/svg">
<circle cx="24" cy="24" r="24" fill="#25D366"/>
<g clip-path="url(#clip0_233_4653)">
<path fill-rule="evenodd" clip-rule="evenodd" d="M32.5031 15.485C30.2473 13.2388 27.2471 12.0011 24.0504 12C17.4634 12 12.1026 17.3307 12.1003 23.883C12.0991 25.9776 12.6498 28.0221 13.6955 29.8239L12 35.9825L18.3349 34.33C20.0802 35.2771 22.0455 35.7756 24.0453 35.7762H24.0504C30.6363 35.7762 35.9977 30.445 36 23.8927C36.0011 20.7171 34.7595 17.7318 32.5031 15.4856V15.485ZM24.0504 33.7693H24.0464C22.2644 33.7688 20.5163 33.2924 18.991 32.3926L18.6283 32.1784L14.8689 33.159L15.8722 29.5139L15.6362 29.1401C14.642 27.5674 14.1166 25.7497 14.1177 23.8836C14.12 18.4378 18.5756 14.0069 24.0545 14.0069C26.7073 14.008 29.201 15.0366 31.0763 16.9039C32.9517 18.7706 33.9837 21.2527 33.9825 23.8915C33.9802 29.3379 29.5247 33.7688 24.0504 33.7688V33.7693ZM29.4983 26.372C29.1998 26.2232 27.7319 25.5052 27.4579 25.4061C27.1841 25.3069 26.9853 25.2574 26.7864 25.5548C26.5876 25.8523 26.0152 26.5213 25.841 26.719C25.6668 26.9173 25.4926 26.9418 25.1941 26.793C24.8956 26.6443 23.9335 26.3309 22.7927 25.3195C21.9052 24.532 21.3058 23.5599 21.1317 23.2624C20.9575 22.965 21.1133 22.8043 21.2623 22.6567C21.3963 22.5234 21.5608 22.3097 21.7103 22.1365C21.8599 21.9632 21.9092 21.8391 22.0089 21.6413C22.1086 21.443 22.0587 21.2698 21.9843 21.1211C21.9097 20.9724 21.3127 19.5107 21.0635 18.9164C20.8211 18.3375 20.5747 18.4162 20.3919 18.4065C20.2177 18.3979 20.0189 18.3962 19.8195 18.3962C19.6201 18.3962 19.2969 18.4703 19.0231 18.7677C18.7492 19.0651 17.9779 19.7837 17.9779 21.2447C17.9779 22.7057 19.0477 24.1183 19.1973 24.3166C19.3468 24.5149 21.3029 27.5139 24.2979 28.8005C25.0102 29.1065 25.5665 29.2894 26.0003 29.4262C26.7154 29.6524 27.3663 29.6205 27.8808 29.5441C28.4544 29.4587 29.6473 28.8256 29.896 28.1321C30.1447 27.4386 30.1447 26.8437 30.0702 26.7201C29.9957 26.5964 29.7963 26.5218 29.4978 26.3731L29.4983 26.372Z" fill="white"/>
</g>
<defs>
<clipPath id="clip0_233_4653">
<rect width="24" height="24" fill="white" transform="translate(12 12)"/>
</clipPath>
</defs>
</svg>
